# xmcd CD database file
#
# Track frame offsets:
#	150
#	18169
#	38454
#	60007
#	75662
#	92711
#	119283
#	135681
#	152330
#	167150
#	181481
#	197020
#
# Disc length: 2866 seconds
#
# Revision: 1
# Processed by: cddbd v1.5.1PL0 Copyright (c) Steve Scherf et al.
# Submitted via: CDex 1.51
#
DISCID=840b300c
DTITLE=Gilberto Gil - Parabolicamara
DYEAR=1991
DGENRE=MPB
TTITLE0=Madalena (Entra em Beco, Sai em Beco)
TTITLE1=Parabolicamará
TTITLE2=Um Sonho
TTITLE3=Buda Nagô
TTITLE4=Serafim
TTITLE5=Queiro Ser Teu Funk
TTITLE6=Neve Na Bahia
TTITLE7=Yá Olokun
TTITLE8=O Fim Da História
TTITLE9=De Onde Vem O Baião
TTITLE10=Falso Toureiro
TTITLE11=Sina
EXTD=YEAR: 1991
EXTT0=
EXTT1=
EXTT2=
EXTT3=
EXTT4=
EXTT5=
EXTT6=
EXTT7=
EXTT8=
EXTT9=
EXTT10=
EXTT11=
PLAYORDER=
